<svg width="24" height="24" viewBox="0 0 24 24" fill="none" xmlns="http://www.w3.org/2000/svg">
<path d="M12 14.25C12 14.25 16.5 10.337 16.5 7.40217C16.5 4.97092 14.4853 3 12 3C9.51472 3 7.5 4.97092 7.5 7.40217C7.5 10.337 12 14.25 12 14.25Z" fill="#DFFF7E"/>
<path d="M12 14.25L11.5079 14.816C11.7901 15.0613 12.2099 15.0613 12.4921 14.816L12 14.25ZM7.14239 14.8705C7.54084 14.7574 7.77213 14.3426 7.65897 13.9442C7.54582 13.5457 7.13107 13.3144 6.73261 13.4276L6.9375 14.1491L7.14239 14.8705ZM17.2674 13.4276C16.8689 13.3144 16.4542 13.5457 16.341 13.9442C16.2279 14.3426 16.4592 14.7574 16.8576 14.8705L17.0625 14.1491L17.2674 13.4276ZM16.5 7.40217H15.75C15.75 7.95734 15.5323 8.62344 15.1373 9.3533C14.7477 10.0731 14.2189 10.7948 13.6747 11.4455C13.1326 12.0936 12.5883 12.6558 12.1787 13.0566C11.9743 13.2565 11.8045 13.4152 11.6867 13.5231C11.6279 13.577 11.5821 13.6182 11.5515 13.6455C11.5362 13.6591 11.5248 13.6692 11.5174 13.6757C11.5137 13.6789 11.5111 13.6812 11.5095 13.6826C11.5087 13.6833 11.5081 13.6838 11.5079 13.684C11.5077 13.6842 11.5077 13.6842 11.5077 13.6842C11.5077 13.6842 11.5077 13.6842 11.5077 13.6842C11.5078 13.6841 11.5079 13.684 12 14.25C12.4921 14.816 12.4923 14.8158 12.4924 14.8157C12.4925 14.8157 12.4926 14.8155 12.4928 14.8154C12.493 14.8152 12.4934 14.8149 12.4938 14.8145C12.4946 14.8138 12.4957 14.8128 12.4971 14.8117C12.4998 14.8093 12.5036 14.8059 12.5084 14.8017C12.5181 14.7932 12.5319 14.781 12.5496 14.7652C12.5849 14.7337 12.6358 14.6879 12.7 14.6291C12.8283 14.5116 13.0101 14.3416 13.2276 14.1289C13.6617 13.7042 14.2424 13.1048 14.8253 12.4078C15.4061 11.7133 16.0023 10.9065 16.4565 10.0672C16.9053 9.23797 17.25 8.3144 17.25 7.40217H16.5ZM12 14.25C12.4921 13.684 12.4922 13.6841 12.4923 13.6842C12.4923 13.6842 12.4923 13.6842 12.4923 13.6842C12.4923 13.6842 12.4923 13.6842 12.4921 13.684C12.4919 13.6838 12.4913 13.6833 12.4905 13.6826C12.4889 13.6812 12.4863 13.6789 12.4826 13.6757C12.4752 13.6692 12.4638 13.6591 12.4485 13.6455C12.4179 13.6182 12.3721 13.577 12.3133 13.5231C12.1955 13.4152 12.0257 13.2565 11.8213 13.0566C11.4117 12.6558 10.8674 12.0936 10.3253 11.4455C9.78113 10.7948 9.25228 10.0731 8.86273 9.3533C8.46775 8.62344 8.25 7.95734 8.25 7.40217H7.5H6.75C6.75 8.3144 7.09475 9.23797 7.54352 10.0672C7.99773 10.9065 8.59387 11.7133 9.17469 12.4078C9.7576 13.1048 10.3383 13.7042 10.7724 14.1289C10.9899 14.3416 11.1717 14.5116 11.3 14.6291C11.3642 14.6879 11.4151 14.7337 11.4504 14.7652C11.4681 14.781 11.4819 14.7932 11.4916 14.8017C11.4964 14.8059 11.5002 14.8093 11.5029 14.8117C11.5043 14.8128 11.5054 14.8138 11.5062 14.8145C11.5066 14.8149 11.507 14.8152 11.5073 14.8154C11.5074 14.8155 11.5075 14.8157 11.5076 14.8157C11.5077 14.8158 11.5079 14.816 12 14.25ZM7.5 7.40217H8.25C8.25 5.40059 9.91331 3.75 12 3.75V3V2.25C9.11613 2.25 6.75 4.54125 6.75 7.40217H7.5ZM12 3V3.75C14.0867 3.75 15.75 5.40059 15.75 7.40217H16.5H17.25C17.25 4.54125 14.8839 2.25 12 2.25V3ZM21 17.25H20.25C20.25 17.5065 20.1284 17.8188 19.7664 18.1754C19.4017 18.5346 18.8356 18.8926 18.0755 19.2093C16.5586 19.8414 14.411 20.25 12 20.25V21V21.75C14.5596 21.75 16.912 21.3191 18.6524 20.594C19.521 20.232 20.2729 19.782 20.8191 19.244C21.3679 18.7033 21.75 18.029 21.75 17.25H21ZM12 21V20.25C9.58899 20.25 7.44141 19.8414 5.9245 19.2093C5.16441 18.8926 4.59826 18.5346 4.2336 18.1754C3.87159 17.8188 3.75 17.5065 3.75 17.25H3H2.25C2.25 18.029 2.63209 18.7033 3.18093 19.244C3.72712 19.782 4.47899 20.232 5.34758 20.594C7.08802 21.3191 9.44045 21.75 12 21.75V21ZM3 17.25H3.75C3.75 16.9329 3.94131 16.5212 4.53529 16.0633C5.12176 15.6113 6.00877 15.1925 7.14239 14.8705L6.9375 14.1491L6.73261 13.4276C5.48937 13.7807 4.40763 14.2679 3.61956 14.8753C2.839 15.4769 2.25 16.2782 2.25 17.25H3ZM17.0625 14.1491L16.8576 14.8705C17.9912 15.1925 18.8782 15.6113 19.4647 16.0633C20.0587 16.5212 20.25 16.9329 20.25 17.25H21H21.75C21.75 16.2782 21.161 15.4769 20.3804 14.8753C19.5924 14.2679 18.5106 13.7807 17.2674 13.4276L17.0625 14.1491Z" fill="#DFFF7E"/>
</svg>
