<svg width="24" height="24" viewBox="0 0 24 24" fill="none" xmlns="http://www.w3.org/2000/svg">
<path d="M13.1113 2.84863L13.1117 2.09863H13.1113V2.84863ZM14.0898 3.63965L14.8233 3.48324L14.8233 3.48284L14.0898 3.63965ZM14.5146 5.63184L13.7811 5.78825L13.7812 5.78843L14.5146 5.63184ZM15.8066 6.37305L16.0419 7.08519L16.0419 7.08519L15.8066 6.37305ZM18.6826 5.42285L18.4477 4.71059L18.4473 4.71071L18.6826 5.42285ZM19.8838 5.87109L20.5295 5.48967L20.5293 5.48933L19.8838 5.87109ZM21.0068 7.77246L21.6527 7.39115L21.6526 7.39104L21.0068 7.77246ZM20.8037 9.0127L21.2921 9.5819L21.2924 9.58158L20.8037 9.0127ZM18.665 10.8477L18.1767 10.2785L18.1766 10.2785L18.665 10.8477ZM18.665 12.3652L18.1765 12.9343L18.1765 12.9343L18.665 12.3652ZM20.8047 14.2021L21.2936 13.6334L21.2932 13.6331L20.8047 14.2021ZM21.0078 15.4424L21.6535 15.824L21.6536 15.8238L21.0078 15.4424ZM19.8848 17.3428L20.5304 17.7244L20.5304 17.7243L19.8848 17.3428ZM18.6826 17.791L18.4471 18.5031L18.4476 18.5032L18.6826 17.791ZM15.9687 16.8936L16.2042 16.1815L16.2041 16.1814L15.9687 16.8936ZM14.6767 17.6348L13.9433 17.4782L13.9432 17.4783L14.6767 17.6348ZM14.0898 20.3867L14.8233 20.5435L14.8233 20.5432L14.0898 20.3867ZM13.1113 21.1777V21.9277H13.1117L13.1113 21.1777ZM9.83202 20.3867L10.5654 20.2298L10.5654 20.2296L9.83202 20.3867ZM9.24217 17.6338L9.97553 17.4767L9.97549 17.4765L9.24217 17.6338ZM7.95116 16.8945L7.71585 16.1824L7.71576 16.1824L7.95116 16.8945ZM5.23924 17.791L5.47457 18.5031L5.47464 18.5031L5.23924 17.791ZM4.03807 17.3428L3.39253 17.7246L3.39256 17.7246L4.03807 17.3428ZM2.91405 15.4424L2.26838 15.824L2.26851 15.8242L2.91405 15.4424ZM3.11717 14.2012L3.60571 14.7702L3.60582 14.7701L3.11717 14.2012ZM5.25487 12.3652L4.76623 11.7963L4.76622 11.7963L5.25487 12.3652ZM5.25487 10.8477L4.76624 11.4166L4.76625 11.4166L5.25487 10.8477ZM3.11815 9.0127L3.60678 8.44371L3.60669 8.44363L3.11815 9.0127ZM2.91502 7.77246L3.56077 8.15392L3.56079 8.15388L2.91502 7.77246ZM4.03807 5.87109L3.3926 5.48917L3.3923 5.48967L4.03807 5.87109ZM5.23924 5.42285L5.4746 4.71074L5.47437 4.71066L5.23924 5.42285ZM8.11424 6.37305L7.87889 7.08516L7.87925 7.08528L8.11424 6.37305ZM9.40526 5.63281L10.1386 5.78991L10.1386 5.78984L9.40526 5.63281ZM9.83202 3.63965L10.5654 3.79667L10.5654 3.79653L9.83202 3.63965ZM11.9609 8.77344L11.9611 8.02344H11.9609V8.77344ZM8.72069 12.0137L7.97069 12.0136V12.0138L8.72069 12.0137ZM11.9609 15.2529V16.0029H11.9611L11.9609 15.2529ZM15.2002 12.0137L15.9502 12.0138V12.0136L15.2002 12.0137ZM13.1113 2.84863L13.111 3.59863C13.2297 3.59869 13.3319 3.68204 13.3564 3.79646L14.0898 3.63965L14.8233 3.48284C14.6505 2.675 13.9359 2.09902 13.1117 2.09863L13.1113 2.84863ZM14.0898 3.63965L13.3563 3.79606L13.7811 5.78825L14.5146 5.63184L15.2481 5.47543L14.8233 3.48324L14.0898 3.63965ZM14.5146 5.63184L13.7812 5.78843C13.9986 6.80683 15.0525 7.41205 16.0419 7.08519L15.8066 6.37305L15.5714 5.6609C15.4304 5.70748 15.2792 5.62109 15.2481 5.47524L14.5146 5.63184ZM15.8066 6.37305L16.0419 7.08519L18.9179 6.13499L18.6826 5.42285L18.4473 4.71071L15.5713 5.66091L15.8066 6.37305ZM18.6826 5.42285L18.9175 6.13511C19.0403 6.09462 19.1761 6.14775 19.2382 6.25286L19.8838 5.87109L20.5293 5.48933C20.1057 4.77291 19.2347 4.45101 18.4477 4.71059L18.6826 5.42285ZM19.8838 5.87109L19.238 6.25252L20.3611 8.15388L21.0068 7.77246L21.6526 7.39104L20.5295 5.48967L19.8838 5.87109ZM21.0068 7.77246L20.361 8.15377C20.4198 8.25338 20.3984 8.37211 20.3149 8.44381L20.8037 9.0127L21.2924 9.58158C21.9301 9.03372 22.0791 8.11339 21.6527 7.39115L21.0068 7.77246ZM20.8037 9.0127L20.3153 8.44349L18.1767 10.2785L18.665 10.8477L19.1534 11.4169L21.2921 9.5819L20.8037 9.0127ZM18.665 10.8477L18.1766 10.2785C17.3628 10.9769 17.3631 12.236 18.1765 12.9343L18.665 12.3652L19.1536 11.7962C19.0372 11.6963 19.0374 11.5164 19.1535 11.4168L18.665 10.8477ZM18.665 12.3652L18.1765 12.9343L20.3161 14.7712L20.8047 14.2021L21.2932 13.6331L19.1536 11.7962L18.665 12.3652ZM20.8047 14.2021L20.3157 14.7709C20.3995 14.8429 20.4206 14.9618 20.362 15.0609L21.0078 15.4424L21.6536 15.8238C22.0804 15.1013 21.9307 14.1811 21.2936 13.6334L20.8047 14.2021ZM21.0078 15.4424L20.3621 15.0608L19.2391 16.9612L19.8848 17.3428L20.5304 17.7243L21.6535 15.824L21.0078 15.4424ZM19.8848 17.3428L19.2391 16.9612C19.1772 17.0658 19.041 17.1195 18.9176 17.0788L18.6826 17.791L18.4476 18.5032C19.2343 18.7628 20.1065 18.4416 20.5304 17.7244L19.8848 17.3428ZM18.6826 17.791L18.9181 17.0789L16.2042 16.1815L15.9687 16.8936L15.7333 17.6056L18.4471 18.5031L18.6826 17.791ZM15.9687 16.8936L16.2041 16.1814C15.2145 15.8544 14.1607 16.4598 13.9433 17.4782L14.6767 17.6348L15.4102 17.7913C15.4414 17.6454 15.5925 17.5591 15.7334 17.6057L15.9687 16.8936ZM14.6767 17.6348L13.9432 17.4783L13.3563 20.2303L14.0898 20.3867L14.8233 20.5432L15.4102 17.7912L14.6767 17.6348ZM14.0898 20.3867L13.3564 20.2299C13.3319 20.3443 13.2297 20.4277 13.111 20.4277L13.1113 21.1777L13.1117 21.9277C13.9359 21.9273 14.6505 21.3514 14.8233 20.5435L14.0898 20.3867ZM13.1113 21.1777V20.4277H10.8105V21.1777V21.9277H13.1113V21.1777ZM10.8105 21.1777V20.4277C10.6922 20.4277 10.59 20.3448 10.5654 20.2298L9.83202 20.3867L9.09861 20.5436C9.27134 21.3511 9.98546 21.9277 10.8105 21.9277V21.1777ZM9.83202 20.3867L10.5654 20.2296L9.97553 17.4767L9.24217 17.6338L8.50882 17.7909L9.09866 20.5438L9.83202 20.3867ZM9.24217 17.6338L9.97549 17.4765C9.7571 16.4584 8.70408 15.8559 7.71585 16.1824L7.95116 16.8945L8.18647 17.6067C8.32792 17.5599 8.47772 17.646 8.50885 17.7911L9.24217 17.6338ZM7.95116 16.8945L7.71576 16.1824L5.00384 17.0789L5.23924 17.791L5.47464 18.5031L8.18656 17.6066L7.95116 16.8945ZM5.23924 17.791L5.00391 17.0789C4.88175 17.1193 4.74611 17.0666 4.68358 16.9609L4.03807 17.3428L3.39256 17.7246C3.81611 18.4406 4.6867 18.7635 5.47457 18.5031L5.23924 17.791ZM4.03807 17.3428L4.68361 16.961L3.55958 15.0606L2.91405 15.4424L2.26851 15.8242L3.39253 17.7246L4.03807 17.3428ZM2.91405 15.4424L3.55971 15.0608C3.50073 14.961 3.52227 14.8419 3.60571 14.7702L3.11717 14.2012L2.62863 13.6321C1.99023 14.1802 1.84144 15.1016 2.26838 15.824L2.91405 15.4424ZM3.11717 14.2012L3.60582 14.7701L5.74352 12.9342L5.25487 12.3652L4.76622 11.7963L2.62852 13.6322L3.11717 14.2012ZM5.25487 12.3652L5.7435 12.9342C6.55663 12.2359 6.55667 10.977 5.74349 10.2787L5.25487 10.8477L4.76625 11.4166C4.88239 11.5164 4.88241 11.6965 4.76623 11.7963L5.25487 12.3652ZM5.25487 10.8477L5.7435 10.2787L3.60678 8.44371L3.11815 9.0127L2.62952 9.58168L4.76624 11.4166L5.25487 10.8477ZM3.11815 9.0127L3.60669 8.44363C3.52324 8.37199 3.50184 8.25367 3.56077 8.15392L2.91502 7.77246L2.26928 7.391C1.84255 8.11338 1.99132 9.03379 2.62961 9.58176L3.11815 9.0127ZM2.91502 7.77246L3.56079 8.15388L4.68384 6.25252L4.03807 5.87109L3.3923 5.48967L2.26926 7.39104L2.91502 7.77246ZM4.03807 5.87109L4.68354 6.25301C4.74598 6.14749 4.88182 6.09467 5.00411 6.13504L5.23924 5.42285L5.47437 4.71066C4.68684 4.45066 3.81618 4.77329 3.3926 5.48917L4.03807 5.87109ZM5.23924 5.42285L5.00389 6.13497L7.87889 7.08516L8.11424 6.37305L8.3496 5.66093L5.4746 4.71074L5.23924 5.42285ZM8.11424 6.37305L7.87925 7.08528C8.86787 7.41146 9.92062 6.8076 10.1386 5.78991L9.40526 5.63281L8.6719 5.47572C8.64072 5.62124 8.4903 5.70735 8.34923 5.66081L8.11424 6.37305ZM9.40526 5.63281L10.1386 5.78984L10.5654 3.79667L9.83202 3.63965L9.09864 3.48262L8.67188 5.47579L9.40526 5.63281ZM9.83202 3.63965L10.5654 3.79653C10.59 3.68158 10.6922 3.59863 10.8105 3.59863V2.84863V2.09863C9.98546 2.09863 9.27134 2.67525 9.09861 3.48277L9.83202 3.63965ZM10.8105 2.84863V3.59863H13.1113V2.84863V2.09863H10.8105V2.84863ZM11.9609 8.77344V8.02344C9.75749 8.02344 7.971 9.81049 7.97069 12.0136L8.72069 12.0137L9.47069 12.0138C9.47089 10.6388 10.5861 9.52344 11.9609 9.52344V8.77344ZM8.72069 12.0137L7.97069 12.0138C7.971 14.2171 9.75778 16.0029 11.9609 16.0029V15.2529V14.5029C10.5858 14.5029 9.47089 13.3883 9.47069 12.0136L8.72069 12.0137ZM11.9609 15.2529L11.9611 16.0029C14.1638 16.0024 15.9499 14.2168 15.9502 12.0138L15.2002 12.0137L14.4502 12.0136C14.45 13.3881 13.3355 14.5026 11.9607 14.5029L11.9609 15.2529ZM15.2002 12.0137L15.9502 12.0136C15.9499 9.81088 14.1641 8.024 11.9611 8.02344L11.9609 8.77344L11.9607 9.52344C13.3352 9.52379 14.45 10.6389 14.4502 12.0138L15.2002 12.0137Z" fill="#F5F3EE"/>
</svg>
