<svg width="26" height="26" viewBox="0 0 26 26" fill="none" xmlns="http://www.w3.org/2000/svg">
<path d="M13.4495 1.1814C6.6743 1.1814 1.18164 6.67405 1.18164 13.4493V19.5583H6.43277V24.8094H12.5417C19.317 24.8094 24.8097 19.3167 24.8097 12.5415V1.1814H13.4495Z" stroke="#9EC037" stroke-width="2.3628" stroke-miterlimit="10"/>
<path d="M6.43115 13.5238V19.5579C9.82919 19.5579 12.5818 16.8032 12.5818 13.4072V11.0399" stroke="#9EC037" stroke-width="2.3628" stroke-miterlimit="10"/>
<path d="M6.43115 19.5584H9.83127C14.7493 19.5584 18.7345 15.5732 18.7345 10.6552V8.75842" stroke="#9EC037" stroke-width="2.3628" stroke-miterlimit="10"/>
<path d="M6.4338 13.4853C7.48024 13.4853 8.32854 12.637 8.32854 11.5905C8.32854 10.5441 7.48024 9.6958 6.4338 9.6958C5.38737 9.6958 4.53906 10.5441 4.53906 11.5905C4.53906 12.637 5.38737 13.4853 6.4338 13.4853Z" fill="#9EC037" stroke="#9EC037" stroke-width="0.7876" stroke-miterlimit="10"/>
<path d="M12.5832 11.0394C13.6296 11.0394 14.478 10.1911 14.478 9.14468C14.478 8.09824 13.6296 7.24994 12.5832 7.24994C11.5368 7.24994 10.6885 8.09824 10.6885 9.14468C10.6885 10.1911 11.5368 11.0394 12.5832 11.0394Z" fill="#9EC037" stroke="#9EC037" stroke-width="0.7876" stroke-miterlimit="10"/>
<path d="M18.7321 8.75792C19.7786 8.75792 20.6269 7.90962 20.6269 6.86318C20.6269 5.81675 19.7786 4.96844 18.7321 4.96844C17.6857 4.96844 16.8374 5.81675 16.8374 6.86318C16.8374 7.90962 17.6857 8.75792 18.7321 8.75792Z" fill="#9EC037" stroke="#9EC037" stroke-width="0.7876" stroke-miterlimit="10"/>
</svg>
