<svg width="26" height="26" viewBox="0 0 26 26" fill="none" xmlns="http://www.w3.org/2000/svg">
<path d="M13.4493 1.1814C6.67406 1.1814 1.1814 6.67406 1.1814 13.4493V19.5583H6.43253V24.8094H12.5415C19.3168 24.8094 24.8094 19.3168 24.8094 12.5415V1.1814H13.4493Z" stroke="#DFFF7E" stroke-width="2.3628" stroke-miterlimit="10"/>
<path d="M6.43081 13.5238V19.5579C9.82884 19.5579 12.5814 16.8032 12.5814 13.4072V11.0399" stroke="#DFFF7E" stroke-width="2.3628" stroke-miterlimit="10"/>
<path d="M6.43081 19.5584H9.83093C14.7489 19.5584 18.7341 15.5732 18.7341 10.6552V8.7584" stroke="#DFFF7E" stroke-width="2.3628" stroke-miterlimit="10"/>
<path d="M6.43346 13.4853C7.4799 13.4853 8.3282 12.637 8.3282 11.5905C8.3282 10.5441 7.4799 9.69579 6.43346 9.69579C5.38703 9.69579 4.53872 10.5441 4.53872 11.5905C4.53872 12.637 5.38703 13.4853 6.43346 13.4853Z" fill="#DFFF7E" stroke="#DFFF7E" stroke-width="0.7876" stroke-miterlimit="10"/>
<path d="M12.5827 11.0394C13.6292 11.0394 14.4775 10.1911 14.4775 9.14466C14.4775 8.09823 13.6292 7.24992 12.5827 7.24992C11.5363 7.24992 10.688 8.09823 10.688 9.14466C10.688 10.1911 11.5363 11.0394 12.5827 11.0394Z" fill="#DFFF7E" stroke="#DFFF7E" stroke-width="0.7876" stroke-miterlimit="10"/>
<path d="M18.732 8.75794C19.7785 8.75794 20.6268 7.90963 20.6268 6.8632C20.6268 5.81676 19.7785 4.96846 18.732 4.96846C17.6856 4.96846 16.8373 5.81676 16.8373 6.8632C16.8373 7.90963 17.6856 8.75794 18.732 8.75794Z" fill="#DFFF7E" stroke="#DFFF7E" stroke-width="0.7876" stroke-miterlimit="10"/>
</svg>
