<svg width="90" height="18" viewBox="0 0 90 18" fill="none" xmlns="http://www.w3.org/2000/svg">
<path d="M10.0561 13.8933L9.33779 11.7573H4.64999L3.9128 13.8933H0L5.19816 0.661584H8.77072L14.0823 13.8933H10.0561ZM8.44938 8.90303L6.97499 4.80121L5.53841 8.90303H8.44938Z" fill="white"/>
<path d="M22.9599 3.68597L25.3227 3.70487V12.778C25.3227 15.9725 23.2246 17.9573 19.8599 17.9573C16.9679 17.9573 14.9453 16.5018 14.4727 14.0823H17.8563C18.102 14.7628 18.9715 15.1408 19.8221 15.1408C21.013 15.1408 21.9581 14.3847 21.9581 13.175V12.8725C21.1831 13.3451 20.2758 13.6286 19.2929 13.6286C16.363 13.6286 14.1892 11.4549 14.1892 8.50608C14.1892 5.59511 16.363 3.36463 19.2929 3.36463C20.5215 3.36463 21.6368 3.81829 22.5063 4.55548L22.9599 3.68597ZM19.8788 10.7366C21.1453 10.7366 22.0526 9.81035 22.0526 8.50608C22.0526 7.22072 21.1453 6.2756 19.8788 6.2756C18.6124 6.2756 17.6862 7.22072 17.6862 8.50608C17.6862 9.81035 18.5935 10.7366 19.8788 10.7366Z" fill="white"/>
<path d="M33.2576 3.64816H34.2027V6.86157H32.8228C31.5942 6.86157 31.0649 7.40974 31.0649 8.71401V13.8933H27.5491V3.68597H29.9119L30.46 4.82011C31.1783 3.98841 32.0478 3.64816 33.2576 3.64816Z" fill="white"/>
<path d="M40.4799 14.2335C37.1531 14.2335 34.7714 11.9463 34.7714 8.78962C34.7714 5.63292 37.1531 3.36463 40.4799 3.36463C43.8068 3.36463 46.2074 5.63292 46.2074 8.78962C46.2074 11.9463 43.8068 14.2335 40.4799 14.2335ZM40.4799 11.0768C41.7653 11.0768 42.6915 10.1506 42.6915 8.80852C42.6915 7.46645 41.7653 6.52133 40.4799 6.52133C39.2135 6.52133 38.2873 7.44755 38.2873 8.80852C38.2873 10.1506 39.2135 11.0768 40.4799 11.0768Z" fill="white"/>
<path d="M55.5139 0.661584H59.1809V13.8933H55.5139V8.82742H51.5444V13.8933H47.8584V0.661584H51.5444V5.44389H55.5139V0.661584Z" fill="white"/>
<path d="M66.2993 14.2335C63.2938 14.2335 61.2713 12.3811 61.2713 9.52681V3.68597H64.7871V9.37559C64.7871 10.453 65.3731 11.0768 66.2993 11.0768C67.2444 11.0768 67.8115 10.4341 67.8115 9.37559V3.68597H71.3273V9.52681C71.3273 12.3811 69.3237 14.2335 66.2993 14.2335Z" fill="white"/>
<path d="M79.4131 3.38353C82.5509 3.38353 84.7814 5.63292 84.7814 8.80852C84.7814 11.9841 82.5509 14.2335 79.4131 14.2335C78.2223 14.2335 77.1638 13.8366 76.3321 13.1372L76.0107 13.8933H73.4022V0H76.8802V4.08292C77.6174 3.62926 78.468 3.38353 79.4131 3.38353ZM78.9406 11.1146C80.2449 11.1146 81.2278 10.1317 81.2278 8.80852C81.2278 7.46645 80.2638 6.48353 78.9406 6.48353C77.6363 6.48353 76.6534 7.46645 76.6534 8.80852C76.6534 10.1317 77.6363 11.1146 78.9406 11.1146Z" fill="white"/>
<path d="M86.2468 13.8933V10.6421H89.6681V13.8933H86.2468Z" fill="white"/>
</svg>
