<svg width="24" height="24" viewBox="0 0 24 24" fill="none" xmlns="http://www.w3.org/2000/svg">
<path d="M6.12271 16.1174C7.51848 16.8613 8.74392 16.4399 9.61517 15.0858C10.4864 13.7317 9.83597 12.2149 8.76233 11.5455C8.70746 11.5113 8.65138 11.4776 8.59563 11.4454C7.76914 10.9705 6.83582 10.7128 5.88276 10.6962C4.92971 10.6796 3.98798 10.9047 3.14547 11.3505C3.18062 12.3031 3.45651 13.2312 3.9474 14.0483C4.4383 14.8654 5.12818 15.5448 5.95269 16.0231C6.00844 16.0553 6.06565 16.087 6.12271 16.1174Z" fill="#DFFF7E" stroke="#DFFF7E" stroke-width="1.5" stroke-linejoin="round"/>
<line x1="7.27345" y1="13.6445" x2="8.81609" y2="14.5308" stroke="#6B8718" stroke-width="1.5" stroke-linecap="round"/>
<path d="M12.3301 7.10896C10.9364 9.21605 11.4214 11.2283 13.443 12.8182C15.4646 14.4081 17.9747 13.6029 19.2013 11.9968C19.264 11.9147 19.3261 11.8306 19.3857 11.7468C20.2656 10.5043 20.8164 9.05915 20.9868 7.54618C21.1571 6.03322 20.9414 4.50176 20.3597 3.09472C18.8397 3.00676 17.3222 3.30529 15.9488 3.96246C14.5754 4.61963 13.3909 5.61403 12.5057 6.85284C12.4461 6.93664 12.387 7.02281 12.3301 7.10896Z" fill="#DFFF7E" stroke="#DFFF7E" stroke-width="1.5" stroke-linejoin="round"/>
<path d="M15.9822 9.07349L13.6132 11.9677" stroke="#6B8718" stroke-width="1.5" stroke-linecap="round"/>
<path d="M12.8604 13.3845C12.611 13.9118 12 15.348 12 16.7842C12 18.2457 12 20.0761 12 21.2254" stroke="#DFFF7E" stroke-width="1.5" stroke-linecap="round"/>
<path d="M10 15.4436C10.6385 15.9466 11.9323 17.0598 12 17.4886" stroke="#DFFF7E" stroke-width="1.5" stroke-linecap="round"/>
</svg>
