<svg width="17" height="20" viewBox="0 0 17 20" fill="none" xmlns="http://www.w3.org/2000/svg">
<path d="M15.2023 4.26219C15.2026 4.26219 15.2029 4.26199 15.203 4.2617L15.9718 2.40377C16.3219 1.55744 15.393 0.601745 14.5067 0.832679C13.0383 1.21528 10.9741 1.58543 8.4839 1.58543C5.9929 1.58543 3.92791 1.21505 2.45905 0.832319C1.57282 0.601401 0.644162 1.55689 0.994296 2.40314L1.64524 3.97642C1.72226 4.16258 1.74143 4.36733 1.7085 4.56609C1.52986 5.64425 1.01727 9.54219 1.73099 15.4733C1.75169 15.6453 1.72865 15.822 1.6624 15.9821L0.994556 17.5962C0.644389 18.4426 1.57333 19.3983 2.45965 19.1673C3.92805 18.7847 5.99218 18.4146 8.4824 18.4146C10.9726 18.4146 13.0368 18.7847 14.5052 19.1673C15.3915 19.3983 16.3204 18.4426 15.9702 17.5962L15.3024 15.9821C15.2362 15.822 15.2131 15.6453 15.2338 15.4733C16.0785 8.454 15.2056 4.28237 15.2013 4.26226C15.2012 4.26177 15.2018 4.26219 15.2023 4.26219Z" stroke="#789326" stroke-width="1.5" stroke-miterlimit="10"/>
<rect x="4.66309" y="4.10815" width="7.64111" height="5.89185" rx="0.5" stroke="#789326" stroke-width="1.5"/>
</svg>
