<svg width="21" height="21" viewBox="0 0 21 21" fill="none" xmlns="http://www.w3.org/2000/svg">
<path d="M7.62695 12.7344C7.62695 11.1694 7.89773 9.25813 8.97877 7.396" stroke="#789326" stroke-width="1.5" stroke-linecap="round"/>
<path d="M16.3115 7.35161L17.6269 7.07389C17.8986 7.0165 18.1651 7.19164 18.2202 7.4639L18.4183 8.44271" stroke="#789326" stroke-width="1.5" stroke-linecap="round"/>
<path d="M12.8539 10.5996C12.0637 11.1849 10.4287 12.8822 10.2104 14.9893" stroke="#789326" stroke-width="1.5" stroke-linecap="round"/>
<path d="M16.3588 7.45366L15.1773 10.4357C15.1018 10.6262 15.3276 10.7935 15.4879 10.6657L18.4249 8.32391C18.7195 8.08901 19.1566 8.25495 19.2029 8.62889C20.0007 15.0695 15.4546 18.5812 13.9666 19.2445C12.4164 19.9355 10.4688 18.5535 9.05772 17.6624C7.64665 16.7713 7.8848 16.2258 7.8848 15.7166C8.41259 10.4827 12.926 7.77524 15.7957 6.82731C16.1781 6.70101 16.5071 7.0793 16.3588 7.45366Z" stroke="#789326" stroke-width="1.5" stroke-linecap="round"/>
<path d="M15.0791 6.44241C14.9583 5.03522 14.3889 2.03382 13.0656 0.854232C12.9597 0.759861 12.8148 0.72941 12.6771 0.763181C11.0401 1.16452 7.72921 2.59801 5.99672 5.5877C3.73106 9.49747 4.6055 11.6978 5.67871 12.4071C6.53728 12.9744 7.41445 13.2133 7.74571 13.2618" stroke="#789326" stroke-width="1.5" stroke-linecap="round"/>
<path d="M5.62847 5.00571C5.28767 4.78125 4.40945 4.31784 3.45904 4.13482C3.31388 4.10687 3.16482 4.1522 3.06161 4.25805C2.23576 5.10505 0.838612 7.23282 0.753288 10.2066C0.639023 14.1891 3.53368 17.0442 4.58107 17.0987C5.41899 17.1424 6.68235 16.8138 7.20929 16.6441" stroke="#789326" stroke-width="1.5" stroke-linecap="round"/>
<path d="M12.7543 1.24146C12.3833 1.58089 11.4744 2.56526 10.8066 3.78731" stroke="#789326" stroke-width="1.5" stroke-linecap="round"/>
<path d="M1.82373 7.22445L3.51292 6.95166" stroke="#789326" stroke-width="1.5" stroke-linecap="round"/>
</svg>
